HIERARCHY
ROOT Hips
{
	OFFSET 0.000000 0.000000 0.000000
	CHANNELS 6 Xposition Yposition Zposition Zrotation Yrotation Xrotation 
	JOINT LHipJoint
	{
		OFFSET 0.000000 0.000000 0.000000
		CHANNELS 3 Zrotation Yrotation Xrotation
		JOINT LeftUpLeg
		{
			OFFSET 1.363060 -1.794630 0.839290
			CHANNELS 3 Zrotation Yrotation Xrotation
			JOINT LeftLeg
			{
				OFFSET 2.448110 -6.726130 0.000000
				CHANNELS 3 Zrotation Yrotation Xrotation
				JOINT LeftFoot
				{
					OFFSET 2.562200 -7.039590 0.000000
					CHANNELS 3 Zrotation Yrotation Xrotation
					JOINT LeftToeBase
					{
						OFFSET 0.157640 -0.433110 2.322550
						CHANNELS 3 Zrotation Yrotation Xrotation
						End Site
						{
							OFFSET 0.000000 0.000000 0.000000
						}
					}
				}
			}
		}
	}
	JOINT RHipJoint
	{
		OFFSET 0.000000 0.000000 0.000000
		CHANNELS 3 Zrotation Yrotation Xrotation
		JOINT RightUpLeg
		{
			OFFSET -1.305520 -1.794630 0.839290
			CHANNELS 3 Zrotation Yrotation Xrotation
			JOINT RightLeg
			{
				OFFSET -2.542530 -6.985550 0.000000
				CHANNELS 3 Zrotation Yrotation Xrotation
				JOINT RightFoot
				{
					OFFSET -2.568260 -7.056230 0.000000
					CHANNELS 3 Zrotation Yrotation Xrotation
					JOINT RightToeBase
					{
						OFFSET -0.164730 -0.452590 2.363150
						CHANNELS 3 Zrotation Yrotation Xrotation
						End Site
						{
							OFFSET 0.000000 0.000000 0.000000
						}
					}
				}
			}
		}
	}
}
MOTION
Frames: 22
Frame Time: 0.008333
2.223818 17.248433 1.214683 21.539717 -86.976844 -11.386459 -9.569744 1.599378 2.851176 -13.438211 -5.409724 -13.915329 -2.098441 -0.587709 10.930332 1.706616 9.243603 -8.247744 -0.035100 -0.000000 -32.708800 10.984551 0.611714 0.212362 -0.469545 -3.757184 -37.608274 -1.387557 -3.566654 58.985192 -1.420697 -2.801651 19.710408 -0.780201 0.000000 -83.059200
2.266384 17.245706 1.249226 15.807958 -86.827565 -5.836788 -9.683340 1.472789 2.653805 -13.214519 -5.194642 -13.900827 -2.066184 -0.551428 11.316798 1.674027 9.031604 -8.401739 -0.074400 0.000000 -32.774200 10.923640 0.900724 0.081772 -0.491227 -3.927711 -40.276803 -1.552743 -3.768783 62.775493 -1.466369 -1.117112 23.649766 0.068100 0.000000 -81.856699
2.310076 17.242633 1.282479 9.912899 -86.637755 -0.143088 -9.786868 1.346102 2.446136 -12.957016 -4.951751 -13.866882 -2.034421 -0.514457 11.701763 1.636522 8.788232 -8.558424 -0.113100 -0.000000 -32.868300 10.854230 1.195317 -0.064549 -0.460467 -4.128492 -42.936343 -1.681945 -3.981076 66.411520 -1.501190 0.736300 27.131063 1.156000 0.000000 -80.257999
2.354192 17.239632 1.314428 4.058700 -86.408837 5.498583 -9.879451 1.223647 2.237930 -12.663351 -4.709063 -13.823131 -2.001552 -0.475720 12.086117 1.598362 8.537168 -8.717224 -0.150200 0.000000 -32.971700 10.780676 1.493346 -0.228147 -0.368333 -4.363339 -45.595277 -1.799129 -4.210865 69.900820 -1.516691 2.634458 30.023992 2.384101 -0.000000 -78.674499
2.398261 17.237103 1.345183 -1.575843 -86.142994 10.914525 -9.964383 1.107747 2.037564 -12.332150 -4.490612 -13.779561 -1.965886 -0.434115 12.471865 1.563071 8.299102 -8.877447 -0.185000 0.000000 -33.065700 10.702336 1.794925 -0.408311 -0.208451 -4.630017 -48.260718 -1.927197 -4.459038 73.248964 -1.510932 4.441196 32.257825 3.625900 0.000000 -77.466500
2.441525 17.235495 1.374756 -6.765433 -85.842075 15.889582 -10.045236 0.998826 1.854203 -11.969152 -4.330596 -13.737457 -1.925349 -0.390106 12.851349 1.535317 8.105008 -9.033222 -0.216700 0.000000 -33.134500 10.615689 2.100332 -0.601616 0.013814 -4.924007 -50.940449 -2.083408 -4.722890 76.458755 -1.486046 6.036068 33.805969 4.757000 0.000001 -76.812700
2.483423 17.235136 1.403107 -11.314995 -85.508180 20.236658 -10.123437 0.894990 1.695427 -11.586499 -4.265434 -13.694241 -1.878176 -0.345439 13.211272 1.519755 7.987656 -9.176191 -0.244400 0.000000 -33.163800 10.516613 2.409452 -0.802333 0.283155 -5.238462 -53.642434 -2.277375 -4.997963 79.524055 -1.446210 7.331152 34.684152 5.676900 0.000000 -76.842300
2.524056 17.236386 1.431655 -15.622789 -85.141791 24.348791 -10.214082 0.794389 1.552733 -11.149687 -4.232699 -13.680527 -1.824408 -0.296017 13.599312 1.507408 7.888224 -9.321197 -0.271200 0.000000 -33.164000 10.395481 2.716580 -1.005731 0.632486 -5.550224 -56.353092 -2.510104 -5.273925 82.420524 -1.395241 8.273527 34.937162 6.319700 -0.000001 -77.426600
2.562598 17.239260 1.459184 -19.195006 -84.750328 27.747389 -10.302553 0.694742 1.438939 -10.709530 -4.325296 -13.655537 -1.762263 -0.249055 13.949409 1.511245 7.897469 -9.439579 -0.293100 0.000000 -33.121900 10.256000 3.023700 -1.202392 0.996456 -5.857628 -59.087729 -2.779012 -5.549939 85.136215 -1.335032 8.880067 34.624981 6.681100 -0.000000 -78.450200
2.599163 17.243768 1.486501 -22.306329 -84.339394 30.704445 -10.394594 0.594936 1.345935 -10.252536 -4.498160 -13.635253 -1.692982 -0.202851 14.284279 1.525291 7.976339 -9.538567 -0.312000 0.000000 -33.050300 10.094210 3.327200 -1.385219 1.379872 -6.139084 -61.837654 -3.074374 -5.818283 87.640302 -1.266792 9.192566 33.839592 6.788200 -0.000000 -79.646500
2.633711 17.249730 1.513591 -25.001950 -83.918776 33.266362 -10.487682 0.494290 1.269175 -9.788369 -4.740998 -13.612369 -1.617817 -0.158469 14.595012 1.548855 8.121833 -9.613915 -0.327500 0.000001 -32.958900 9.910929 3.625825 -1.546468 1.759351 -6.378657 -64.599087 -3.383345 -6.074600 89.905514 -1.191249 9.286226 32.696095 6.702200 -0.000000 -80.736400
2.666340 17.256808 1.539701 -27.214407 -83.503129 35.364590 -10.571488 0.392537 1.204315 -9.347207 -5.061465 -13.563430 -1.538964 -0.118696 14.853169 1.583854 8.348821 -9.654188 -0.338000 0.000000 -32.851400 9.712663 3.920608 -1.678554 2.089295 -6.569493 -67.371217 -3.692483 -6.318183 91.913032 -1.109367 9.255176 31.330207 6.502700 -0.000000 -81.410401
2.697615 17.264754 1.566914 -29.443596 -83.090500 37.491480 -10.669944 0.289105 1.135135 -8.870737 -5.342472 -13.535970 -1.458613 -0.076889 15.121628 1.614906 8.552263 -9.690151 -0.347500 0.000000 -32.764200 9.486209 4.205666 -1.779639 2.422681 -6.680641 -70.132263 -3.981481 -6.536655 93.623131 -1.026416 9.139652 29.905455 6.238799 -0.000000 -81.683300
2.727364 17.273010 1.592831 -31.325669 -82.701861 39.283079 -10.756716 0.184586 1.061342 -8.431715 -5.642389 -13.470302 -1.379902 -0.039962 15.329562 1.650987 8.795701 -9.694430 -0.351800 -0.000000 -32.681100 9.249152 4.485899 -1.843425 2.671860 -6.728491 -72.888707 -4.241795 -6.736787 95.041342 -0.945306 9.022968 28.560394 5.982700 0.000000 -81.303600
2.755879 17.281229 1.617965 -33.047002 -82.340589 40.919747 -10.839101 0.079077 0.972827 -8.015475 -5.905573 -13.375535 -1.305308 -0.005703 15.494251 1.684931 9.030985 -9.679598 -0.352700 -0.000001 -32.616100 8.999290 4.758903 -1.870600 2.850121 -6.707569 -75.625553 -4.461674 -6.913796 96.156213 -0.872396 8.918218 27.423683 5.760600 0.000000 -80.412700
2.783415 17.289050 1.642270 -34.671239 -82.010117 42.458800 -10.919067 -0.027198 0.863445 -7.621085 -6.102230 -13.249767 -1.237033 0.026541 15.617886 1.712776 9.232070 -9.651704 -0.350700 -0.000000 -32.573200 8.737821 5.023045 -1.863583 2.959883 -6.623726 -78.330586 -4.634397 -7.065838 96.969603 -0.813080 8.823820 26.581275 5.584899 -0.000000 -79.183099
2.810087 17.296200 1.665092 -36.157846 -81.715465 43.854826 -10.990836 -0.133566 0.731334 -7.265202 -6.235848 -13.078352 -1.176782 0.055726 15.687175 1.734984 9.402349 -9.609152 -0.345800 -0.000000 -32.544900 8.470768 5.277922 -1.825397 2.990042 -6.492689 -80.994855 -4.758220 -7.194042 97.493920 -0.771326 8.725916 26.073298 5.454800 -0.000000 -77.886000
2.835530 17.302476 1.686081 -37.484669 -81.455751 45.089907 -11.052030 -0.238390 0.579078 -6.954350 -6.307457 -12.867757 -1.125868 0.081415 15.705343 1.750737 9.534883 -9.556265 -0.338400 -0.000000 -32.519900 8.202377 5.521551 -1.757862 2.943041 -6.332463 -83.617807 -4.834967 -7.300070 97.750041 -0.748432 8.602355 25.886965 5.356900 0.000000 -76.643801
2.861027 17.307895 1.707288 -38.936603 -81.220317 46.425862 -11.127526 -0.344535 0.395662 -6.633062 -6.242915 -12.627948 -1.083224 0.109509 15.705065 1.750558 9.567936 -9.511345 -0.332100 -0.000000 -32.530500 7.919600 5.746165 -1.679876 2.891274 -6.135187 -86.148000 -4.859295 -7.376723 97.733987 -0.747155 8.395452 25.992090 5.254000 -0.000000 -75.958200
2.884713 17.312303 1.725638 -40.071021 -81.015909 47.453655 -11.180096 -0.445986 0.206403 -6.383390 -6.172826 -12.356875 -1.050118 0.131738 15.650551 1.749289 9.594938 -9.454743 -0.323400 -0.000000 -32.511100 7.648263 5.956740 -1.576159 2.756834 -5.953681 -88.639569 -4.845534 -7.438239 97.493533 -0.762454 8.111828 26.297052 5.135200 0.000000 -75.564500
2.908460 17.315868 1.744121 -41.268242 -80.827664 48.521109 -11.244657 -0.547708 -0.005188 -6.127361 -6.000651 -12.059393 -1.024022 0.156442 15.583346 1.735188 9.540383 -9.406696 -0.315999 -0.000000 -32.515700 7.369289 6.143416 -1.473261 2.636084 -5.767007 -91.012604 -4.785662 -7.474547 97.005738 -0.795667 7.687491 26.738270 4.952000 -0.000001 -76.029400
2.930520 17.318531 1.760468 -42.172026 -80.656649 49.308161 -11.291873 -0.644326 -0.212763 -5.926307 -5.845567 -11.757081 -1.004938 0.177355 15.493410 1.721136 9.483578 -9.356490 -0.308000 0.000000 -32.489000 7.103814 6.309711 -1.354116 2.467723 -5.620496 -93.319431 -4.692249 -7.497509 96.300764 -0.839894 7.137045 27.206730 4.694800 -0.000000 -76.913600
